<?xml version="1.0" encoding="utf-8"?>
<svg version="1.1" xmlns:cc="http://creativecommons.org/ns#" xmlns:dc="http://purl.org/dc/elements/1.1/" xmlns:rdf="http://www.w3.org/1999/02/22-rdf-syntax-ns#" xmlns="http://www.w3.org/2000/svg" xmlns:xlink="http://www.w3.org/1999/xlink" x="0px" y="0px" viewBox="0 0 1024 768" xml:space="preserve">
<rect fill="#282726" width="1024" height="768" />

 
 <g id="logo-group" stroke-width="0" stroke-miterlimit="2" transform="translate(0.000005 -.0025305) scale(1)">
  <path id="path12" style="font-variant-ligatures:normal" d="m272.41 398.91c2.7363 1.584 5.6167 2.376 9.145 2.7363 3.456 0.35938 4.8965 2.0879 4.8965 4.3203 0 2.376-1.585 4.5361-6.0488 4.5361-3.6728 0-7.3447-0.79199-11.017-2.4482-9.145-4.248-15.481-13.394-15.481-24.05 0-14.689 11.881-26.499 26.498-26.499 4.8242 0 11.593 0.93652 17.065 5.4014 2.0156 1.6553 2.1602 4.5361 0.64844 6.6963-1.2969 1.9443-3.9609 2.0156-6.625 0.57617-2.8799-1.6562-6.5527-3.0967-11.089-3.0967-9.3608 0-16.921 7.5606-16.921 16.922 0.00001 6.4805 3.5283 11.953 8.9287 14.905z" class="c1" fill="#fff"/>
  <path id="path14" style="font-variant-ligatures:normal" d="m290.34 400.92c0-2.5918 2.1602-4.752 4.7529-4.752 2.6641 0 4.8242 2.1602 4.8242 4.752 0 2.6641-2.1602 4.8242-4.8242 4.8242-2.5928-0.00001-4.7529-2.1602-4.7529-4.8242z" class="c3" fill="#20bd89"/>
  <path id="path301091" style="font-variant-ligatures:normal" d="m340.66 378.31c1.44-2.232 0.79199-5.184-1.44-6.624-2.232-1.368-5.184-0.72-6.624 1.512l-3.6 5.688-11.304-17.856c-1.368-2.232-4.32-2.88-6.552-1.512-2.232 1.44-2.88 4.392-1.512 6.624l14.688 23.04-0.072 15.264c0 2.592 2.16 4.752 4.824 4.752 2.592 0 4.752-2.16 4.752-4.752v-15.4zm3.672-19.512c-2.664 0-4.752 2.16-4.752 4.752 0 2.664 2.088 4.824 4.752 4.824s4.752-2.16 4.752-4.824c0-2.592-2.088-4.752-4.752-4.752z" fill="#fff"/>
  <path id="path301093" style="font-variant-ligatures:normal" d="m372.63 404.45v-16.85h10.44c4.536 0 8.496 2.376 8.496 6.048 0 2.232-0.79199 3.6-1.08 4.896-0.576 2.232 0 4.032 2.16 5.184 2.304 1.224 5.184 0.504 6.48-1.8 1.368-2.376 2.016-5.04 2.016-8.352 0-5.184-3.312-9.864-7.416-11.808 2.16-1.728 4.392-5.976 4.392-10.44 0-6.84-5.328-12.528-15.336-12.528h-14.976c-2.592 0-4.752 2.16-4.752 4.752v40.896c0 2.664 2.16 4.752 4.752 4.752 2.664 0 4.824-2.088 4.824-4.752zm0-37.224h9.432c4.968 0 7.2 2.88 7.2 5.976 0 3.6-3.096 5.904-7.2 5.904h-9.432zm14.256 37.224c0-2.664-2.088-4.824-4.752-4.824s-4.752 2.16-4.752 4.824c0 2.592 2.088 4.752 4.752 4.752s4.752-2.16 4.752-4.752z" fill="#e0f6ee"/>
  <path id="path301095" style="font-variant-ligatures:normal" d="m446.5 409.2c2.664 0 4.752-2.16 4.752-4.752 0-2.664-2.088-4.824-4.752-4.824h-19.656v-11.088h16.704c2.664 0 4.752-1.944 4.752-4.536 0-2.664-2.088-4.608-4.752-4.608h-16.704v-11.016h5.112c2.592 0 4.752-2.16 4.752-4.824 0-2.592-2.16-4.752-4.752-4.752h-9.936c-2.592 0-4.752 2.16-4.752 4.752v40.896c0 2.592 2.16 4.752 4.752 4.752zm4.536-45.648c0-2.592-2.16-4.752-4.752-4.752-2.664 0-4.824 2.16-4.824 4.752 0 2.664 2.16 4.824 4.824 4.824 2.592 0 4.752-2.16 4.752-4.824z" fill="#c0ecde"/>
  <path id="path301097" style="font-variant-ligatures:normal" d="m504.21 374.86c0-9.792-6.696-16.056-16.992-16.056h-15.48c-2.592 0-4.752 2.16-4.752 4.752v40.896c0 2.592 2.16 4.752 4.752 4.752 2.664 0 4.824-2.16 4.824-4.752v-12.96h10.44l2.16 3.456c1.368 2.232 4.32 2.88 6.552 1.44 4.392-2.808 0.864-7.416 0.864-7.416 4.968-2.808 7.632-7.92 7.632-14.112zm-17.208 8.352h-10.44v-15.12h10.656c4.968 0 7.416 2.952 7.416 7.344 0 4.032-1.944 7.776-7.632 7.776zm18.72 21.168c0-2.664-2.088-4.824-4.752-4.824-2.592 0-4.752 2.16-4.752 4.824 0 2.592 2.16 4.752 4.752 4.752 2.664 0 4.752-2.16 4.752-4.752z" fill="#a1e3cd"/>
  <path id="path301099" style="font-variant-ligatures:normal" d="m556.85 395.95c0-8.856-8.136-12.744-17.352-16.272-7.488-2.88-10.008-4.824-10.008-7.128 0-3.528 3.384-6.048 8.208-6.048 5.544 0 8.568 3.024 9.864 4.176 1.8 1.584 4.392 1.8 6.12-0.36 1.296-1.656 1.512-3.96 0.216-5.688-1.872-2.664-7.488-7.128-15.912-7.128-7.416 0-11.664 2.736-13.968 5.04-2.664 2.736-4.104 6.264-4.104 10.008 0.072 9.864 10.008 12.816 16.632 15.192 7.344 2.664 10.728 4.608 10.728 7.632 0 2.52-1.512 4.32-3.528 5.256-2.592 1.224-5.256 0.36-7.704 0.216-2.376-0.144-4.392 1.512-4.392 4.536 0 3.672 5.04 5.112 8.784 5.112 11.448 0 16.416-7.416 16.416-14.544zm-33.048-1.656c-2.592 0-4.752 2.088-4.752 4.752s2.16 4.752 4.752 4.752c2.664 0 4.824-2.088 4.824-4.752s-2.16-4.752-4.824-4.752z" fill="#82dabd"/>
  <path id="path301101" style="font-variant-ligatures:normal" d="m602.55 409.2c2.664 0 4.752-2.16 4.752-4.752 0-2.664-2.088-4.824-4.752-4.824h-19.656v-11.088h16.704c2.664 0 4.752-1.944 4.752-4.536 0-2.664-2.088-4.608-4.752-4.608h-16.704v-11.016h5.112c2.592 0 4.752-2.16 4.752-4.824 0-2.592-2.16-4.752-4.752-4.752h-9.936c-2.592 0-4.752 2.16-4.752 4.752v40.896c0 2.592 2.16 4.752 4.752 4.752zm4.536-45.648c0-2.592-2.16-4.752-4.752-4.752-2.664 0-4.824 2.16-4.824 4.752 0 2.664 2.16 4.824 4.824 4.824 2.592 0 4.752-2.16 4.752-4.824z" fill="#62d1ac"/>
  <path id="path301103" style="font-variant-ligatures:normal" d="m631.96 361.1c-2.232-2.592-4.608-2.736-6.408-1.728-2.304 1.224-2.52 3.384-2.52 5.184v39.888c0 2.592 2.16 4.752 4.752 4.752 2.664 0 4.824-2.16 4.824-4.752v-28.512l24.984 30.6c0.79199 0.936 1.368 1.584 2.448 2.16 2.016 1.008 3.816 0.36 4.968-0.504 1.44-1.224 1.8-2.664 1.8-4.32v-26.064c0-2.592-2.16-4.752-4.824-4.752-2.592 0-4.752 2.16-4.752 4.824v14.256zm30.096-2.304c-2.664 0-4.824 2.088-4.824 4.752s2.16 4.752 4.824 4.752c2.592 0 4.752-2.088 4.752-4.752s-2.16-4.752-4.752-4.752z" fill="#43c79c"/>
  <path id="path301105" style="font-variant-ligatures:normal" d="m719.64 395.95c0-8.856-8.136-12.744-17.352-16.272-7.488-2.88-10.008-4.824-10.008-7.128 0-3.528 3.384-6.048 8.208-6.048 5.544 0 8.568 3.024 9.864 4.176 1.8 1.584 4.392 1.8 6.12-0.36 1.296-1.656 1.512-3.96 0.216-5.688-1.872-2.664-7.488-7.128-15.912-7.128-7.416 0-11.664 2.736-13.968 5.04-2.664 2.736-4.104 6.264-4.104 10.008 0.072 9.864 10.008 12.816 16.632 15.192 7.344 2.664 10.728 4.608 10.728 7.632 0 2.52-1.512 4.32-3.528 5.256-2.592 1.224-5.256 0.36-7.704 0.216-2.376-0.144-4.392 1.512-4.392 4.536 0 3.672 5.04 5.112 8.784 5.112 11.448 0 16.416-7.416 16.416-14.544zm-33.048-1.656c-2.592 0-4.752 2.088-4.752 4.752s2.16 4.752 4.752 4.752c2.664 0 4.824-2.088 4.824-4.752s-2.16-4.752-4.824-4.752z" fill="#24be8b"/>
  <path id="path301107" style="font-variant-ligatures:normal" d="m765.34 409.2c2.664 0 4.752-2.16 4.752-4.752 0-2.664-2.088-4.824-4.752-4.824h-19.656v-11.088h16.704c2.664 0 4.752-1.944 4.752-4.536 0-2.664-2.088-4.608-4.752-4.608h-16.704v-11.016h5.112c2.592 0 4.752-2.16 4.752-4.824 0-2.592-2.16-4.752-4.752-4.752h-9.936c-2.592 0-4.752 2.16-4.752 4.752v40.896c0 2.592 2.16 4.752 4.752 4.752zm4.536-45.648c0-2.592-2.16-4.752-4.752-4.752-2.664 0-4.824 2.16-4.824 4.752 0 2.664 2.16 4.824 4.824 4.824 2.592 0 4.752-2.16 4.752-4.824z" fill="#04b57a"/>
 </g>

</svg>