<svg width="16" height="14" viewBox="0 0 16 14" fill="none" xmlns="http://www.w3.org/2000/svg">
<path fill-rule="evenodd" clip-rule="evenodd" d="M1.53217 2.31193C1.65245 2.07412 1.89976 1.9091 2.18189 1.9091H13.818C14.1002 1.9091 14.3476 2.07421 14.4678 2.31213L8.00014 6.83951L1.53217 2.31193ZM1.45464 4.03312V11.3634C1.45464 11.7618 1.78356 12.0907 2.18189 12.0907H13.818C14.2163 12.0907 14.5453 11.7618 14.5453 11.3634V4.03339L8.4172 8.32303C8.16679 8.49832 7.8335 8.49832 7.58309 8.32303L1.45464 4.03312ZM15.9998 2.65519V11.3634C15.9998 12.5651 15.0196 13.5452 13.818 13.5452H2.18189C0.980257 13.5452 0.00012207 12.5651 0.00012207 11.3634V2.63636C0.00012207 1.43472 0.980257 0.45459 2.18189 0.45459H13.818C15.0115 0.45459 15.9864 1.42143 15.9996 2.61186C16.0001 2.62631 16.0002 2.64076 15.9998 2.65519Z" fill="#494949"/>
</svg>
