<svg width="14" height="14" viewBox="0 0 14 14" fill="none" xmlns="http://www.w3.org/2000/svg">
<path fill-rule="evenodd" clip-rule="evenodd" d="M3.81818 1.27273C2.41237 1.27273 1.27273 2.41237 1.27273 3.81818V10.1818C1.27273 11.5876 2.41237 12.7273 3.81818 12.7273H10.1818C11.5876 12.7273 12.7273 11.5876 12.7273 10.1818V3.81818C12.7273 2.41237 11.5876 1.27273 10.1818 1.27273H3.81818ZM0 3.81818C0 1.70946 1.70946 0 3.81818 0H10.1818C12.2905 0 14 1.70946 14 3.81818V10.1818C14 12.2905 12.2905 14 10.1818 14H3.81818C1.70946 14 0 12.2905 0 10.1818V3.81818ZM7.3075 5.08405C6.91029 5.02515 6.50462 5.093 6.14819 5.27794C5.79177 5.46288 5.50273 5.7555 5.3222 6.11418C5.14166 6.47286 5.07882 6.87934 5.14262 7.27579C5.20641 7.67224 5.39359 8.03848 5.67753 8.32242C5.96147 8.60636 6.32771 8.79354 6.72417 8.85734C7.12062 8.92113 7.52709 8.85829 7.88577 8.67776C8.24445 8.49722 8.53707 8.20819 8.72202 7.85176C8.90696 7.49533 8.97481 7.08967 8.9159 6.69246C8.85582 6.28729 8.66702 5.91219 8.3774 5.62256C8.08777 5.33293 7.71266 5.14413 7.3075 5.08405ZM5.56201 4.14824C6.15606 3.84 6.83217 3.72692 7.49418 3.82509C8.16946 3.92522 8.79463 4.23989 9.27735 4.72261C9.76007 5.20532 10.0747 5.83049 10.1749 6.50577C10.273 7.16779 10.16 7.8439 9.85172 8.43794C9.54348 9.03199 9.05578 9.51371 8.45798 9.8146C7.86018 10.1155 7.18272 10.2202 6.52197 10.1139C5.86122 10.0076 5.25081 9.69561 4.77758 9.22238C4.30435 8.74914 3.99238 8.13874 3.88606 7.47799C3.77973 6.81723 3.88446 6.13978 4.18535 5.54198C4.48624 4.94418 4.96797 4.45647 5.56201 4.14824ZM10.5001 2.86369C10.1486 2.86369 9.86369 3.1486 9.86369 3.50005C9.86369 3.85151 10.1486 4.13642 10.5001 4.13642H10.5064C10.8579 4.13642 11.1428 3.85151 11.1428 3.50005C11.1428 3.1486 10.8579 2.86369 10.5064 2.86369H10.5001Z" fill="black"/>
</svg>
