<svg width="13" height="13" viewBox="0 0 13 13" fill="none" xmlns="http://www.w3.org/2000/svg">
<path fill-rule="evenodd" clip-rule="evenodd" d="M1.658 2.24671C1.658 1.93351 1.9119 1.67961 2.2251 1.67961C2.5383 1.67961 2.7922 1.93351 2.7922 2.24671C2.7922 2.55991 2.5383 2.81381 2.2251 2.81381C1.9119 2.81381 1.658 2.55991 1.658 2.24671ZM2.2251 0.54541C1.2855 0.54541 0.523804 1.30711 0.523804 2.24671C0.523804 3.18631 1.2855 3.94801 2.2251 3.94801C3.1647 3.94801 3.9264 3.18631 3.9264 2.24671C3.9264 1.30711 3.1647 0.54541 2.2251 0.54541ZM9.03025 5.08217C8.27823 5.08217 7.55701 5.38091 7.02525 5.91267C6.49349 6.44443 6.19475 7.16565 6.19475 7.91767V11.3203H7.32895V7.91767C7.32895 7.46645 7.50819 7.03372 7.82725 6.71467C8.1463 6.39561 8.57903 6.21637 9.03025 6.21637C9.48146 6.21637 9.91419 6.39561 10.2332 6.71467C10.5523 7.03372 10.7315 7.46645 10.7315 7.91767V11.3203H11.8657V7.91767C11.8657 7.16565 11.567 6.44443 11.0352 5.91267C10.5035 5.38091 9.78227 5.08217 9.03025 5.08217ZM9.03025 3.94797C7.97742 3.94797 6.96771 4.3662 6.22325 5.11067C5.47878 5.85513 5.06055 6.86484 5.06055 7.91767V11.8874C5.06055 12.2006 5.31445 12.4545 5.62765 12.4545H7.89605C8.20925 12.4545 8.46315 12.2006 8.46315 11.8874V7.91767C8.46315 7.76726 8.52289 7.62302 8.62925 7.51667C8.7356 7.41032 8.87984 7.35057 9.03025 7.35057C9.18065 7.35057 9.32489 7.41032 9.43125 7.51667C9.5376 7.62302 9.59735 7.76726 9.59735 7.91767V11.8874C9.59735 12.2006 9.85125 12.4545 10.1644 12.4545H12.4328C12.746 12.4545 12.9999 12.2006 12.9999 11.8874V7.91767C12.9999 6.86484 12.5817 5.85513 11.8372 5.11067C11.0928 4.3662 10.0831 3.94797 9.03025 3.94797ZM0.523804 5.08216C0.523804 4.76896 0.777703 4.51506 1.0909 4.51506H3.3593C3.6725 4.51506 3.9264 4.76896 3.9264 5.08216V11.8874C3.9264 12.2006 3.6725 12.4545 3.3593 12.4545H1.0909C0.777703 12.4545 0.523804 12.2006 0.523804 11.8874V5.08216ZM1.658 5.64926V11.3203H2.7922V5.64926H1.658Z" fill="black"/>
</svg>
