<svg xmlns="http://www.w3.org/2000/svg" viewBox="0 0 403.42 403.42"><defs><style>.cls-1{fill:#fff;}.cls-2{fill:#1d1d1b;}</style></defs><g id="Layer_2" data-name="Layer 2"><g id="Layer_1-2" data-name="Layer 1"><circle class="cls-1" cx="201.71" cy="201.71" r="201.71"/><path class="cls-2" d="M201.71,340.42a7.41,7.41,0,0,1-3.65-1L90.43,278.08a7.35,7.35,0,0,1-3.72-6.34L85.57,132.51a7.36,7.36,0,0,1,3.72-6.46L198.06,64a7.37,7.37,0,0,1,7.3,0l108.77,62.08a7.37,7.37,0,0,1,3.72,6.4V270.91a7.38,7.38,0,0,1-3.72,6.41L205.37,339.44A7.39,7.39,0,0,1,201.71,340.42ZM101.42,267.37l100.29,57.18L303.1,266.63V136.73L201.71,78.86,100.35,136.71Z"/><path class="cls-2" d="M157.27,228.4a7.31,7.31,0,0,1-3.67-1l-35.83-20.62a7.36,7.36,0,0,1-3.7-6.39V154.15a7.39,7.39,0,0,1,3.72-6.41l80.27-45.8a7.37,7.37,0,0,1,7.3,0l79.84,45.57a7.39,7.39,0,0,1,3.72,6.41v20.71a7.38,7.38,0,0,1-14.75,0V158.2l-72.46-41.36-72.89,41.59v37.71L161,214.63a7.38,7.38,0,0,1-3.69,13.77Z"/><path class="cls-2" d="M201.58,302.77a7.42,7.42,0,0,1-3.67-1l-80.13-46a7.38,7.38,0,0,1-3.71-6.4V229.38a7.38,7.38,0,1,1,14.75,0v15.79l72.76,41.72,72.59-41.61V209.17l-32.65-19a7.37,7.37,0,1,1,7.41-12.75l36.32,21.09a7.37,7.37,0,0,1,3.67,6.37v44.64a7.38,7.38,0,0,1-3.71,6.4l-80,45.83A7.39,7.39,0,0,1,201.58,302.77Z"/><path class="cls-2" d="M182.41,247a7.37,7.37,0,0,1-7.37-7.38V169a7.37,7.37,0,0,1,12.54-5.26l11.89,11.7,14.84-24A7.38,7.38,0,0,1,228,155.34v66.43a7.38,7.38,0,1,1-14.75,0V181.29l-6.06,9.8a7.38,7.38,0,0,1-11.44,1.38l-5.93-5.84v53A7.37,7.37,0,0,1,182.41,247Z"/></g></g></svg>