<svg id="Layer_1" data-name="Layer 1" xmlns="http://www.w3.org/2000/svg" viewBox="0 0 500 500"><defs><style>.cls-1{fill:#1d1d1b;}</style></defs><path class="cls-1" d="M145.92,106.4H109.66a19.21,19.21,0,0,0-19.21,19.21V374.39a19.21,19.21,0,0,0,19.21,19.21h36.26a19.2,19.2,0,0,0,19.2-19.21V125.61A19.2,19.2,0,0,0,145.92,106.4ZM263.09,239.78H226.83A19.21,19.21,0,0,0,207.62,259V374.39a19.21,19.21,0,0,0,19.21,19.21h36.26a19.2,19.2,0,0,0,19.2-19.21V259A19.2,19.2,0,0,0,263.09,239.78ZM380.26,106.4H344a19.2,19.2,0,0,0-19.2,19.21V374.39A19.2,19.2,0,0,0,344,393.6h36.26a19.21,19.21,0,0,0,19.21-19.21V125.61A19.21,19.21,0,0,0,380.26,106.4Z"/></svg>