<?xml version="1.0" standalone="no"?>
<!DOCTYPE svg PUBLIC "-//W3C//DTD SVG 20010904//EN"
 "http://www.w3.org/TR/2001/REC-SVG-20010904/DTD/svg10.dtd">
<svg version="1.0" xmlns="http://www.w3.org/2000/svg"
 width="1024.000000pt" height="768.000000pt" viewBox="0 0 1024.000000 768.000000"
 preserveAspectRatio="xMidYMid meet">

<g transform="translate(0.000000,768.000000) scale(0.100000,-0.100000)"
fill="#000000" stroke="none">
<path d="M0 3840 l0 -3840 5120 0 5120 0 0 3840 0 3840 -5120 0 -5120 0 0
-3840z m2406 1136 c11 -16 14 -62 14 -212 0 -166 2 -193 16 -198 9 -3 71 -6
138 -6 82 0 126 -4 134 -12 8 -8 12 -55 12 -144 0 -170 6 -164 -177 -164 -130
0 -133 -1 -138 -23 -3 -12 -5 -136 -3 -274 l3 -252 29 -30 c34 -35 94 -51 195
-51 48 0 72 -4 81 -15 19 -23 10 -240 -11 -260 -25 -25 -81 -35 -244 -41 -236
-9 -361 22 -451 111 -71 71 -74 92 -74 467 0 208 -4 336 -10 349 -9 16 -22 19
-86 19 -117 0 -114 -5 -114 164 0 122 2 145 16 150 9 3 53 6 99 6 60 0 86 4
95 15 6 8 20 96 31 197 22 207 24 215 47 221 9 3 99 5 200 4 169 -2 185 -4
198 -21z m1343 -412 c158 -32 255 -104 303 -223 23 -55 23 -63 26 -537 3 -433
1 -483 -13 -498 -14 -14 -44 -16 -198 -16 -100 0 -187 4 -193 8 -16 10 -34 48
-34 69 0 11 -6 28 -14 38 -12 17 -17 16 -89 -32 -111 -75 -172 -95 -295 -101
-138 -6 -219 19 -297 90 -79 72 -109 140 -108 248 0 147 63 255 199 345 108
72 314 125 486 125 107 0 119 14 99 120 -6 30 -19 53 -40 72 -27 25 -39 28
-96 28 -99 0 -137 -22 -205 -120 l-15 -22 -179 36 c-98 20 -183 39 -187 42
-16 9 -9 48 15 101 63 134 219 220 443 241 111 11 303 4 392 -14z m1462 16
c127 -24 248 -119 307 -240 57 -117 76 -222 76 -415 0 -146 -3 -183 -23 -260
-30 -117 -62 -182 -118 -245 -95 -106 -195 -150 -341 -150 -113 0 -186 24
-272 90 -36 27 -71 49 -77 50 -10 0 -13 -55 -13 -244 0 -209 -2 -247 -16 -260
-23 -24 -425 -24 -448 0 -14 14 -16 102 -16 819 0 717 2 805 16 819 13 14 48
16 228 16 151 0 215 -3 224 -12 7 -7 12 -31 12 -55 0 -60 18 -63 82 -12 114
91 243 124 379 99z m1490 0 c169 -32 305 -172 354 -364 36 -144 44 -312 20
-468 -26 -173 -67 -267 -157 -356 -85 -84 -183 -122 -318 -122 -126 0 -192 26
-312 121 -14 12 -31 18 -37 15 -8 -5 -11 -83 -11 -246 0 -204 -2 -241 -16
-254 -13 -14 -47 -16 -222 -16 -114 0 -214 5 -222 10 -13 8 -15 111 -18 811
-2 708 -1 805 13 825 15 24 16 24 221 24 122 0 213 -4 225 -10 14 -8 19 -21
19 -56 0 -61 18 -64 82 -13 114 91 243 124 379 99z m985 -42 c9 -13 64 -158
123 -322 58 -165 111 -301 118 -303 20 -7 21 -2 170 420 37 103 75 196 85 207
17 18 32 20 168 20 81 0 155 -3 164 -6 27 -10 18 -57 -29 -169 -25 -58 -54
-126 -64 -153 -18 -46 -202 -488 -334 -802 -186 -444 -288 -529 -642 -533 -77
-1 -148 1 -157 5 -16 7 -18 24 -18 157 0 109 3 152 13 158 6 4 75 10 153 13
129 5 144 7 177 30 74 51 83 18 -183 662 -132 319 -240 588 -240 597 0 38 17
41 252 41 224 0 227 0 244 -22z"/>
<path d="M3535 3870 c-122 -24 -214 -85 -233 -153 -23 -82 24 -143 117 -154
42 -5 60 -1 105 21 84 41 101 71 101 183 0 50 -2 93 -5 96 -12 11 -48 14 -85
7z"/>
<path d="M4835 4281 c-82 -38 -80 -27 -83 -350 l-3 -288 40 -36 c100 -91 239
-63 293 59 38 87 47 342 17 482 -26 125 -149 186 -264 133z"/>
<path d="M6323 4280 c-81 -36 -83 -46 -83 -361 l0 -277 39 -35 c47 -42 107
-61 165 -51 52 8 119 72 135 129 23 79 34 202 28 315 -6 128 -26 203 -65 245
-52 56 -142 71 -219 35z"/>
</g>
</svg>
