<?xml version="1.0" encoding="utf-8"?>
<!-- Generator: Adobe Illustrator 25.2.3, SVG Export Plug-In . SVG Version: 6.00 Build 0)  -->
<svg version="1.1" id="Layer_1" xmlns="http://www.w3.org/2000/svg" xmlns:xlink="http://www.w3.org/1999/xlink" x="0px" y="0px"
	 viewBox="0 0 48 48" style="enable-background:new 0 0 48 48;" xml:space="preserve">
<path d="M43.7,20.8v-7.8c-3.6,0-6.4-1-8.2-2.9c-1.8-2.2-2.9-4.9-2.9-7.7V1.9l-7.3-0.2c0,0,0,0.3,0,0.7v30.8c-0.7,3.7-4.2,6.2-8,5.5
	c-3.7-0.7-6.2-4.2-5.5-8c0.7-3.7,4.2-6.2,8-5.5c0.4,0.1,0.7,0.2,1.1,0.3v-7.5c-0.8-0.1-1.5-0.2-2.3-0.2c-7.8,0-14.2,6.3-14.2,14.2
	s6.3,14.2,14.2,14.2s14.2-6.3,14.2-14.2c0-0.6,0-1.2-0.1-1.7V17.8C35.9,19.9,39.8,21,43.7,20.8z"/>
</svg>
