<svg id="Layer_1" data-name="Layer 1" xmlns="http://www.w3.org/2000/svg" viewBox="0 0 83.64 83.64"><defs><style>.cls-1{fill:#eaeaea;}</style></defs><path class="cls-1" d="M65.91,0A17.73,17.73,0,0,1,83.64,17.73V65.91A17.73,17.73,0,0,1,65.91,83.64H17.73A17.73,17.73,0,0,1,0,65.91V17.73A17.73,17.73,0,0,1,17.73,0"/><path d="M35.2,38.06V34.87s.11-.28,2.54-.78a20.28,20.28,0,0,1,2.77-.41l0,4.38V60.47H35.2Z"/><path d="M40.43,43.28s-21.12-.72-17.56-5.91c3.19-4.67,20.74-6.31,31.26-7.43,9.07-1,16.75-1.89,16.75-1.89s-13.66-1.9-34.72,1.51C14,33.16,17.19,39.19,18,40.49S20,43.85,30.19,44.13C32.62,44.19,40.43,43.28,40.43,43.28Z"/><path d="M51.48,28.12s-2.56-3.5-4.26-4.35S45,23.22,45,23.22l3.51,5.14"/><path d="M51.89,30.17S50,34.08,48.51,35.23s-2.1.94-2.1.94l2.5-5.69"/></svg>