<?xml version="1.0" encoding="UTF-8"?><svg xmlns="http://www.w3.org/2000/svg" xmlns:xlink="http://www.w3.org/1999/xlink" contentScriptType="text/ecmascript" width="750pt" zoomAndPan="magnify" contentStyleType="text/css" viewBox="0 0 750 749.999995" height="749.999995pt" preserveAspectRatio="xMidYMid meet" version="1.2"><defs><g/></defs><g xml:id="surface1" id="surface1"><path style=" stroke:none;fill-rule:nonzero;fill:rgb(0%,0%,0%);fill-opacity:1;" d="M 374.871094 534.554688 C 332.238281 534.554688 292.097656 517.960938 261.972656 487.773438 C 231.785156 457.648438 215.191406 417.503906 215.191406 374.871094 C 215.191406 332.238281 231.785156 292.097656 261.972656 261.972656 C 292.097656 231.785156 332.238281 215.191406 374.871094 215.191406 C 417.503906 215.191406 457.648438 231.785156 487.773438 261.972656 C 517.960938 292.160156 534.554688 332.238281 534.554688 374.871094 C 534.554688 417.503906 517.960938 457.648438 487.773438 487.773438 C 457.648438 517.960938 417.503906 534.554688 374.871094 534.554688 Z M 374.871094 224.765625 C 334.792969 224.765625 297.074219 240.402344 268.738281 268.738281 C 240.398438 297.074219 224.765625 334.792969 224.765625 374.871094 C 224.765625 414.953125 240.398438 452.671875 268.738281 481.007812 C 297.074219 509.34375 334.792969 524.980469 374.871094 524.980469 C 414.953125 524.980469 452.671875 509.34375 481.007812 481.007812 C 509.34375 452.671875 524.980469 414.953125 524.980469 374.871094 C 524.980469 334.792969 509.34375 297.074219 481.007812 268.738281 C 452.671875 240.402344 414.953125 224.765625 374.871094 224.765625 Z M 374.871094 224.765625 "/><g style="fill:rgb(0%,0%,0%);fill-opacity:1;"><g transform="translate(267.194377, 413.173283)"><path style="stroke:none;" d="M 37.882812 0.789062 C 51.414062 0.789062 66.972656 -7.554688 66.972656 -23.566406 L 66.972656 -79.714844 L 55.472656 -79.714844 L 55.472656 -23.679688 C 55.472656 -14.996094 46.117188 -10.597656 37.882812 -10.597656 C 29.539062 -10.597656 20.183594 -14.882812 20.183594 -23.566406 L 20.183594 -79.714844 L 8.683594 -79.714844 L 8.683594 -23.679688 C 8.683594 -7.554688 24.015625 0.789062 37.882812 0.789062 Z M 37.882812 0.789062 "/></g></g><g style="fill:rgb(0%,0%,0%);fill-opacity:1;"><g transform="translate(407.204983, 413.173283)"><path style="stroke:none;" d="M 89.300781 -2.480469 L 76.558594 -14.769531 C 81.859375 -21.648438 85.128906 -30.105469 85.128906 -39.464844 C 85.128906 -50.625 80.503906 -60.660156 73.402344 -67.988281 C 66.074219 -75.316406 56.039062 -79.941406 44.875 -79.941406 C 33.824219 -79.941406 23.679688 -75.316406 16.460938 -67.988281 C 9.359375 -60.660156 4.734375 -50.625 4.734375 -39.464844 C 4.734375 -28.300781 9.582031 -18.492188 16.460938 -10.9375 C 23.453125 -3.15625 33.9375 0.902344 44.875 0.902344 C 53.332031 0.902344 62.125 -1.578125 69.792969 -6.652344 L 76.898438 0 L 89.300781 0 Z M 68.214844 -21.875 L 54.796875 -34.050781 L 41.042969 -34.050781 L 41.042969 -32.246094 L 60.886719 -14.546875 C 55.925781 -11.613281 50.625 -10.148438 45.328125 -10.148438 C 37.773438 -10.148438 30.332031 -13.191406 24.578125 -18.941406 C 19.507812 -24.128906 16.125 -31.457031 16.125 -39.464844 C 16.125 -47.46875 19.507812 -54.683594 24.578125 -59.871094 C 29.878906 -65.171875 37.09375 -68.441406 44.875 -68.441406 C 52.769531 -68.441406 59.984375 -65.171875 65.171875 -59.871094 C 70.246094 -54.683594 73.625 -47.46875 73.625 -39.464844 C 73.625 -33.148438 71.710938 -26.609375 68.214844 -21.875 Z M 68.214844 -21.875 "/></g></g><path style="fill:none;stroke-width:1;stroke-linecap:butt;stroke-linejoin:miter;stroke:rgb(0%,0%,0%);stroke-opacity:1;stroke-miterlimit:4;" d="M 0.000110083 0.000135761 L 12.172358 0.000135761 " transform="matrix(0.000000000000000641,-10.474968,10.621708,0.00000000000000065,374.748558,438.899591)"/></g></svg>