<?xml version="1.0" encoding="UTF-8"?><svg xmlns="http://www.w3.org/2000/svg" xmlns:xlink="http://www.w3.org/1999/xlink" contentScriptType="text/ecmascript" width="750pt" zoomAndPan="magnify" contentStyleType="text/css" viewBox="0 0 750 749.999995" height="749.999995pt" preserveAspectRatio="xMidYMid meet" version="1.2"><defs><g/></defs><g xml:id="surface1" id="surface1"><path style=" stroke:none;fill-rule:nonzero;fill:rgb(100%,100%,100%);fill-opacity:1;" d="M 375 22.707031 C 369.234375 22.707031 363.472656 22.847656 357.714844 23.132812 C 351.957031 23.414062 346.207031 23.839844 340.46875 24.402344 C 334.730469 24.96875 329.011719 25.675781 323.308594 26.519531 C 317.605469 27.367188 311.925781 28.351562 306.269531 29.476562 C 300.617188 30.601562 294.992188 31.863281 289.398438 33.265625 C 283.808594 34.664062 278.253906 36.203125 272.734375 37.875 C 267.21875 39.550781 261.746094 41.359375 256.316406 43.300781 C 250.886719 45.242188 245.511719 47.316406 240.183594 49.523438 C 234.855469 51.730469 229.585938 54.066406 224.375 56.53125 C 219.164062 58.996094 214.015625 61.585938 208.929688 64.304688 C 203.84375 67.023438 198.832031 69.863281 193.886719 72.828125 C 188.941406 75.792969 184.070312 78.875 179.277344 82.078125 C 174.484375 85.28125 169.769531 88.601562 165.140625 92.035156 C 160.507812 95.46875 155.964844 99.015625 151.507812 102.675781 C 147.050781 106.332031 142.6875 110.097656 138.414062 113.96875 C 134.144531 117.839844 129.96875 121.816406 125.890625 125.890625 C 121.816406 129.96875 117.839844 134.144531 113.96875 138.414062 C 110.097656 142.6875 106.332031 147.050781 102.675781 151.507812 C 99.015625 155.964844 95.46875 160.507812 92.035156 165.140625 C 88.601562 169.769531 85.28125 174.484375 82.078125 179.277344 C 78.875 184.070312 75.792969 188.941406 72.828125 193.886719 C 69.863281 198.832031 67.023438 203.84375 64.304688 208.929688 C 61.585938 214.015625 58.996094 219.164062 56.53125 224.375 C 54.066406 229.585938 51.730469 234.855469 49.523438 240.183594 C 47.316406 245.511719 45.242188 250.886719 43.300781 256.316406 C 41.359375 261.746094 39.550781 267.21875 37.875 272.734375 C 36.203125 278.253906 34.664062 283.808594 33.265625 289.398438 C 31.863281 294.992188 30.601562 300.617188 29.476562 306.269531 C 28.351562 311.925781 27.367188 317.605469 26.519531 323.308594 C 25.675781 329.011719 24.96875 334.730469 24.402344 340.46875 C 23.839844 346.207031 23.414062 351.957031 23.132812 357.714844 C 22.847656 363.472656 22.707031 369.234375 22.707031 375 C 22.707031 380.765625 22.847656 386.527344 23.132812 392.285156 C 23.414062 398.042969 23.839844 403.792969 24.402344 409.53125 C 24.96875 415.269531 25.675781 420.988281 26.519531 426.691406 C 27.367188 432.394531 28.351562 438.074219 29.476562 443.730469 C 30.601562 449.382812 31.863281 455.007812 33.265625 460.601562 C 34.664062 466.191406 36.203125 471.746094 37.875 477.265625 C 39.550781 482.78125 41.359375 488.253906 43.300781 493.683594 C 45.242188 499.113281 47.316406 504.488281 49.523438 509.816406 C 51.730469 515.144531 54.066406 520.414062 56.53125 525.625 C 58.996094 530.835938 61.585938 535.984375 64.304688 541.070312 C 67.023438 546.15625 69.863281 551.167969 72.828125 556.113281 C 75.792969 561.058594 78.875 565.929688 82.078125 570.722656 C 85.28125 575.515625 88.601562 580.230469 92.035156 584.859375 C 95.46875 589.492188 99.015625 594.035156 102.675781 598.492188 C 106.332031 602.949219 110.097656 607.3125 113.96875 611.585938 C 117.839844 615.855469 121.816406 620.03125 125.890625 624.109375 C 129.96875 628.183594 134.144531 632.160156 138.414062 636.03125 C 142.6875 639.902344 147.050781 643.667969 151.507812 647.324219 C 155.964844 650.984375 160.507812 654.53125 165.140625 657.964844 C 169.769531 661.398438 174.484375 664.71875 179.277344 667.921875 C 184.070312 671.125 188.941406 674.207031 193.886719 677.171875 C 198.832031 680.136719 203.84375 682.976562 208.929688 685.695312 C 214.015625 688.414062 219.164062 691.003906 224.375 693.46875 C 229.585938 695.933594 234.855469 698.269531 240.183594 700.476562 C 245.511719 702.683594 250.886719 704.757812 256.316406 706.699219 C 261.746094 708.640625 267.21875 710.449219 272.734375 712.125 C 278.253906 713.796875 283.808594 715.332031 289.398438 716.734375 C 294.992188 718.136719 300.617188 719.398438 306.269531 720.523438 C 311.925781 721.648438 317.605469 722.632812 323.308594 723.480469 C 329.011719 724.324219 334.730469 725.03125 340.46875 725.597656 C 346.207031 726.160156 351.957031 726.585938 357.714844 726.867188 C 363.472656 727.152344 369.234375 727.292969 375 727.292969 C 380.765625 727.292969 386.527344 727.152344 392.285156 726.867188 C 398.042969 726.585938 403.792969 726.160156 409.53125 725.597656 C 415.269531 725.03125 420.988281 724.324219 426.691406 723.480469 C 432.394531 722.632812 438.074219 721.648438 443.730469 720.523438 C 449.382812 719.398438 455.007812 718.136719 460.601562 716.734375 C 466.191406 715.332031 471.746094 713.796875 477.265625 712.121094 C 482.78125 710.449219 488.253906 708.640625 493.683594 706.699219 C 499.113281 704.757812 504.488281 702.683594 509.816406 700.476562 C 515.144531 698.269531 520.414062 695.933594 525.625 693.46875 C 530.835938 691.003906 535.984375 688.414062 541.070312 685.695312 C 546.15625 682.976562 551.167969 680.136719 556.113281 677.171875 C 561.058594 674.207031 565.929688 671.125 570.722656 667.921875 C 575.515625 664.71875 580.230469 661.398438 584.859375 657.964844 C 589.492188 654.53125 594.035156 650.984375 598.492188 647.324219 C 602.949219 643.667969 607.3125 639.902344 611.585938 636.03125 C 615.855469 632.160156 620.03125 628.183594 624.109375 624.109375 C 628.183594 620.03125 632.160156 615.855469 636.03125 611.585938 C 639.902344 607.3125 643.667969 602.949219 647.324219 598.492188 C 650.984375 594.035156 654.53125 589.492188 657.964844 584.859375 C 661.398438 580.230469 664.71875 575.515625 667.921875 570.722656 C 671.125 565.929688 674.207031 561.058594 677.171875 556.113281 C 680.136719 551.167969 682.976562 546.15625 685.695312 541.070312 C 688.414062 535.984375 691.003906 530.835938 693.46875 525.625 C 695.933594 520.414062 698.269531 515.144531 700.476562 509.816406 C 702.683594 504.488281 704.757812 499.113281 706.699219 493.683594 C 708.640625 488.253906 710.449219 482.78125 712.121094 477.265625 C 713.796875 471.746094 715.332031 466.191406 716.734375 460.601562 C 718.136719 455.007812 719.398438 449.382812 720.523438 443.730469 C 721.648438 438.074219 722.632812 432.394531 723.480469 426.691406 C 724.324219 420.988281 725.03125 415.269531 725.597656 409.53125 C 726.160156 403.792969 726.585938 398.042969 726.867188 392.285156 C 727.152344 386.527344 727.292969 380.765625 727.292969 375 C 727.292969 369.234375 727.152344 363.472656 726.867188 357.714844 C 726.585938 351.957031 726.160156 346.207031 725.597656 340.46875 C 725.03125 334.730469 724.324219 329.011719 723.480469 323.308594 C 722.632812 317.605469 721.648438 311.925781 720.523438 306.269531 C 719.398438 300.617188 718.136719 294.992188 716.734375 289.398438 C 715.332031 283.808594 713.796875 278.253906 712.121094 272.734375 C 710.449219 267.21875 708.640625 261.746094 706.699219 256.316406 C 704.757812 250.886719 702.683594 245.511719 700.476562 240.183594 C 698.269531 234.855469 695.933594 229.585938 693.46875 224.375 C 691.003906 219.164062 688.414062 214.015625 685.695312 208.929688 C 682.976562 203.84375 680.136719 198.832031 677.171875 193.886719 C 674.207031 188.941406 671.125 184.070312 667.921875 179.277344 C 664.71875 174.484375 661.398438 169.769531 657.964844 165.140625 C 654.53125 160.507812 650.984375 155.964844 647.324219 151.507812 C 643.667969 147.050781 639.902344 142.6875 636.03125 138.414062 C 632.160156 134.144531 628.183594 129.96875 624.109375 125.890625 C 620.03125 121.816406 615.855469 117.839844 611.585938 113.96875 C 607.3125 110.097656 602.949219 106.332031 598.492188 102.675781 C 594.035156 99.015625 589.492188 95.46875 584.859375 92.035156 C 580.230469 88.601562 575.515625 85.28125 570.722656 82.078125 C 565.929688 78.875 561.058594 75.792969 556.113281 72.828125 C 551.167969 69.863281 546.152344 67.023438 541.070312 64.304688 C 535.984375 61.585938 530.835938 58.996094 525.625 56.53125 C 520.414062 54.066406 515.144531 51.730469 509.816406 49.523438 C 504.488281 47.316406 499.113281 45.242188 493.683594 43.300781 C 488.253906 41.359375 482.78125 39.550781 477.265625 37.875 C 471.746094 36.203125 466.191406 34.664062 460.601562 33.265625 C 455.007812 31.863281 449.382812 30.601562 443.730469 29.476562 C 438.074219 28.351562 432.394531 27.367188 426.691406 26.519531 C 420.988281 25.675781 415.269531 24.96875 409.53125 24.402344 C 403.792969 23.839844 398.042969 23.414062 392.285156 23.132812 C 386.527344 22.847656 380.765625 22.707031 375 22.707031 Z M 375 22.707031 "/><path style=" stroke:none;fill-rule:nonzero;fill:rgb(0%,0%,0%);fill-opacity:1;" d="M 374.761719 674.519531 C 294.726562 674.519531 219.367188 643.371094 162.820312 586.699219 C 106.148438 530.152344 75 454.792969 75 374.761719 C 75 294.726562 106.148438 219.367188 162.820312 162.820312 C 219.367188 106.148438 294.726562 75 374.761719 75 C 454.792969 75 530.152344 106.148438 586.699219 162.820312 C 643.371094 219.488281 674.519531 294.726562 674.519531 374.761719 C 674.519531 454.792969 643.371094 530.152344 586.699219 586.699219 C 530.152344 643.371094 454.792969 674.519531 374.761719 674.519531 Z M 374.761719 92.972656 C 299.519531 92.972656 228.714844 122.324219 175.519531 175.519531 C 122.324219 228.714844 92.972656 299.519531 92.972656 374.761719 C 92.972656 450 122.324219 520.804688 175.519531 574 C 228.714844 627.195312 299.519531 656.550781 374.761719 656.550781 C 450 656.550781 520.804688 627.195312 574 574 C 627.195312 520.804688 656.550781 450 656.550781 374.761719 C 656.550781 299.519531 627.195312 228.714844 574 175.519531 C 520.804688 122.324219 450 92.972656 374.761719 92.972656 Z M 374.761719 92.972656 "/><path style="fill:none;stroke-width:1;stroke-linecap:butt;stroke-linejoin:miter;stroke:rgb(0%,0%,0%);stroke-opacity:1;stroke-miterlimit:4;" d="M -0.0000169876 0.0000207365 L 12.30387 0.0000207365 " transform="matrix(0.000000000000001194,-19.506666,19.609427,0.000000000000001201,375.108968,494.9567)"/><g style="fill:rgb(0%,0%,0%);fill-opacity:1;"><g transform="translate(172.622987, 446.660366)"><path style="stroke:none;" d="M 71.117188 1.480469 C 96.519531 1.480469 125.726562 -14.179688 125.726562 -44.238281 L 125.726562 -149.644531 L 104.136719 -149.644531 L 104.136719 -44.449219 C 104.136719 -28.152344 86.570312 -19.894531 71.117188 -19.894531 C 55.457031 -19.894531 37.886719 -27.9375 37.886719 -44.238281 L 37.886719 -149.644531 L 16.296875 -149.644531 L 16.296875 -44.449219 C 16.296875 -14.179688 45.085938 1.480469 71.117188 1.480469 Z M 71.117188 1.480469 "/></g></g><g style="fill:rgb(0%,0%,0%);fill-opacity:1;"><g transform="translate(435.456509, 446.660366)"><path style="stroke:none;" d="M 167.636719 -4.65625 L 143.71875 -27.726562 C 153.667969 -40.640625 159.804688 -56.515625 159.804688 -74.082031 C 159.804688 -95.035156 151.125 -113.875 137.792969 -127.632812 C 124.035156 -141.390625 105.195312 -150.070312 84.242188 -150.070312 C 63.5 -150.070312 44.449219 -141.390625 30.902344 -127.632812 C 17.566406 -113.875 8.890625 -95.035156 8.890625 -74.082031 C 8.890625 -53.128906 17.992188 -34.710938 30.902344 -20.53125 C 44.027344 -5.925781 63.710938 1.691406 84.242188 1.691406 C 100.117188 1.691406 116.625 -2.964844 131.019531 -12.488281 L 144.355469 0 L 167.636719 0 Z M 128.054688 -41.0625 L 102.867188 -63.921875 L 77.046875 -63.921875 L 77.046875 -60.535156 L 114.296875 -27.304688 C 104.984375 -21.800781 95.035156 -19.050781 85.089844 -19.050781 C 70.90625 -19.050781 56.9375 -24.765625 46.140625 -35.558594 C 36.617188 -45.296875 30.269531 -59.054688 30.269531 -74.082031 C 30.269531 -89.109375 36.617188 -102.65625 46.140625 -112.390625 C 56.089844 -122.339844 69.636719 -128.480469 84.242188 -128.480469 C 99.058594 -128.480469 112.605469 -122.339844 122.339844 -112.390625 C 131.867188 -102.65625 138.214844 -89.109375 138.214844 -74.082031 C 138.214844 -62.230469 134.617188 -49.953125 128.054688 -41.0625 Z M 128.054688 -41.0625 "/></g></g></g></svg>