<svg width="22" height="22" viewBox="0 0 22 22" fill="none" xmlns="http://www.w3.org/2000/svg">
<g clip-path="url(#clip0)">
<path d="M20.6617 5.88496C20.5528 5.44992 20.331 5.05132 20.0188 4.72941C19.7065 4.40751 19.3149 4.17371 18.8833 4.05163C17.3067 3.66663 11 3.66663 11 3.66663C11 3.66663 4.69333 3.66663 3.11666 4.08829C2.68514 4.21038 2.29347 4.44418 1.98123 4.76608C1.66898 5.08798 1.44722 5.48658 1.33833 5.92163C1.04978 7.52172 0.908628 9.14491 0.916662 10.7708C0.906376 12.4089 1.04753 14.0445 1.33833 15.6566C1.45837 16.0782 1.68511 16.4616 1.99663 16.7699C2.30814 17.0782 2.69391 17.301 3.11666 17.4166C4.69333 17.8383 11 17.8383 11 17.8383C11 17.8383 17.3067 17.8383 18.8833 17.4166C19.3149 17.2945 19.7065 17.0607 20.0188 16.7388C20.331 16.4169 20.5528 16.0183 20.6617 15.5833C20.948 13.9952 21.0891 12.3844 21.0833 10.7708C21.0936 9.13267 20.9525 7.4971 20.6617 5.88496V5.88496Z" stroke="black" stroke-width="2" stroke-linecap="round" stroke-linejoin="round"/>
<path d="M8.9375 13.7683L14.2083 10.7708L8.9375 7.77332V13.7683Z" stroke="black" stroke-width="2" stroke-linecap="round" stroke-linejoin="round"/>
</g>
<defs>
<clipPath id="clip0">
<rect width="22" height="22" fill="white"/>
</clipPath>
</defs>
</svg>
