<svg width="56" height="39" viewBox="0 0 56 39" fill="none" xmlns="http://www.w3.org/2000/svg">
<path fill-rule="evenodd" clip-rule="evenodd" d="M4.5 5C4.5 2.51472 6.51472 0.5 9 0.5H46C48.4853 0.5 50.5 2.51472 50.5 5V32C50.5 32.3437 50.4615 32.6784 50.3885 33H55C54.8333 34.5 53.7 37.5 50.5 37.5C47.3 37.5 19.5 37.8333 6 38C3.5 38.0309 1 35.4 1 33H4.61151C4.53853 32.6784 4.5 32.3437 4.5 32V5ZM47.5 32C47.5 32.3842 47.3556 32.7346 47.1181 33H7.88195C7.64443 32.7346 7.5 32.3842 7.5 32V5C7.5 4.17157 8.17157 3.5 9 3.5H46C46.8284 3.5 47.5 4.17157 47.5 5V32ZM23 9.5V25.5L27.5 22L31 27L33.5 25.5L30.5 20.5L35.5 18.5L23 9.5Z" fill="black"/>
<path d="M50.3885 33L49.9009 32.8894L49.7623 33.5H50.3885V33ZM55 33L55.4969 33.0552L55.5586 32.5H55V33ZM6 38L5.99383 37.5L5.99383 37.5L6 38ZM1 33V32.5H0.5V33H1ZM4.61151 33V33.5H5.23767L5.09911 32.8894L4.61151 33ZM47.1181 33V33.5H47.3416L47.4906 33.3335L47.1181 33ZM7.88195 33L7.50938 33.3335L7.65844 33.5H7.88195V33ZM23 25.5H22.5V26.5223L23.307 25.8947L23 25.5ZM23 9.5L23.2922 9.09423L22.5 8.52388V9.5H23ZM27.5 22L27.9096 21.7133L27.6081 21.2825L27.193 21.6053L27.5 22ZM31 27L30.5904 27.2867L30.8576 27.6685L31.2572 27.4287L31 27ZM33.5 25.5L33.7572 25.9287L34.186 25.6715L33.9287 25.2428L33.5 25.5ZM30.5 20.5L30.3143 20.0358L29.7692 20.2538L30.0713 20.7572L30.5 20.5ZM35.5 18.5L35.6857 18.9642L36.5309 18.6261L35.7922 18.0942L35.5 18.5ZM9 0C6.23858 0 4 2.23857 4 5H5C5 2.79086 6.79086 1 9 1V0ZM46 0H9V1H46V0ZM51 5C51 2.23858 48.7614 0 46 0V1C48.2091 1 50 2.79086 50 5H51ZM51 32V5H50V32H51ZM50.8761 33.1106C50.9573 32.753 51 32.3812 51 32H50C50 32.3062 49.9657 32.6038 49.9009 32.8894L50.8761 33.1106ZM55 32.5H50.3885V33.5H55V32.5ZM50.5 38C52.283 38 53.5053 37.1539 54.2873 36.1128C55.056 35.0894 55.4059 33.8744 55.4969 33.0552L54.5031 32.9448C54.4274 33.6256 54.1274 34.6606 53.4877 35.5122C52.8614 36.3461 51.917 37 50.5 37V38ZM6.00617 38.5C19.5092 38.3333 47.3041 38 50.5 38V37C47.2959 37 19.4908 37.3334 5.99383 37.5L6.00617 38.5ZM0.5 33C0.5 34.3648 1.20313 35.7418 2.2059 36.7621C3.20937 37.783 4.58288 38.5175 6.00617 38.5L5.99383 37.5C4.91712 37.5133 3.79063 36.9478 2.9191 36.0611C2.04687 35.1736 1.5 34.0353 1.5 33H0.5ZM4.61151 32.5H1V33.5H4.61151V32.5ZM4 32C4 32.3812 4.04274 32.753 4.1239 33.1106L5.09911 32.8894C5.03432 32.6038 5 32.3062 5 32H4ZM4 5V32H5V5H4ZM47.4906 33.3335C47.807 32.98 48 32.5119 48 32H47C47 32.2564 46.9041 32.4893 46.7455 32.6665L47.4906 33.3335ZM7.88195 33.5H47.1181V32.5H7.88195V33.5ZM7 32C7 32.5119 7.19298 32.98 7.50938 33.3335L8.25451 32.6665C8.09587 32.4893 8 32.2564 8 32H7ZM7 5V32H8V5H7ZM9 3C7.89543 3 7 3.89543 7 5H8C8 4.44772 8.44771 4 9 4V3ZM46 3H9V4H46V3ZM48 5C48 3.89543 47.1046 3 46 3V4C46.5523 4 47 4.44771 47 5H48ZM48 32V5H47V32H48ZM23.5 25.5V9.5H22.5V25.5H23.5ZM27.193 21.6053L22.693 25.1053L23.307 25.8947L27.807 22.3947L27.193 21.6053ZM31.4096 26.7133L27.9096 21.7133L27.0904 22.2867L30.5904 27.2867L31.4096 26.7133ZM33.2428 25.0713L30.7428 26.5713L31.2572 27.4287L33.7572 25.9287L33.2428 25.0713ZM30.0713 20.7572L33.0713 25.7572L33.9287 25.2428L30.9287 20.2428L30.0713 20.7572ZM35.3143 18.0358L30.3143 20.0358L30.6857 20.9642L35.6857 18.9642L35.3143 18.0358ZM22.7078 9.90577L35.2078 18.9058L35.7922 18.0942L23.2922 9.09423L22.7078 9.90577Z" fill="black"/>
</svg>
